HIERARCHY
ROOT RootJoint
{
    OFFSET   0.000000   0.000000   0.000000
    CHANNELS 6 Xposition Yposition Zposition Xrotation Yrotation Zrotation
    JOINT pelvis_lowerback
    {
        OFFSET   0.000000   0.093605   0.000000
        CHANNELS 3 Xrotation Yrotation Zrotation
        JOINT lowerback_torso
        {
            OFFSET   0.000000   0.100000   0.000000
            CHANNELS 3 Xrotation Yrotation Zrotation
            JOINT torso_head
            {
                OFFSET   0.000000   0.282350   0.000000
                CHANNELS 3 Xrotation Yrotation Zrotation
                End Site
                {
                    OFFSET   0.000000   0.192650   0.000000
                }
            }
            JOINT rTorso_Clavicle
            {
                OFFSET  -0.001000   0.157500   0.000000
                CHANNELS 3 Xrotation Yrotation Zrotation
                JOINT rShoulder
                {
                    OFFSET  -0.117647   0.000000   0.000000
                    CHANNELS 3 Xrotation Yrotation Zrotation
                    JOINT rElbow
                    {
                        OFFSET  -0.245000   0.000000   0.000000
                        CHANNELS 3 Xrotation Yrotation Zrotation
                        JOINT rWrist
                        {
                            OFFSET  -0.240000   0.000000   0.000000
                            CHANNELS 3 Xrotation Yrotation Zrotation
                            End Site
                            {
                                OFFSET  -0.116353  -0.002500   0.000000
                            }
                        }
                    }
                }
            }
            JOINT lTorso_Clavicle
            {
                OFFSET   0.001000   0.157500   0.000000
                CHANNELS 3 Xrotation Yrotation Zrotation
                JOINT lShoulder
                {
                    OFFSET   0.117647   0.000000   0.000000
                    CHANNELS 3 Xrotation Yrotation Zrotation
                    JOINT lElbow
                    {
                        OFFSET   0.245000   0.000000   0.000000
                        CHANNELS 3 Xrotation Yrotation Zrotation
                        JOINT lWrist
                        {
                            OFFSET   0.240000   0.000000   0.000000
                            CHANNELS 3 Xrotation Yrotation Zrotation
                            End Site
                            {
                                OFFSET   0.116353  -0.002500   0.000000
                            }
                        }
                    }
                }
            }
        }
    }
    JOINT rHip
    {
        OFFSET  -0.100000  -0.051395   0.000000
        CHANNELS 3 Xrotation Yrotation Zrotation
        JOINT rKnee
        {
            OFFSET   0.000000  -0.410000   0.000000
            CHANNELS 3 Xrotation Yrotation Zrotation
            JOINT rAnkle
            {
                OFFSET   0.000000  -0.390000   0.000000
                CHANNELS 3 Xrotation Yrotation Zrotation
                JOINT rToeJoint
                {
                    OFFSET   0.000000  -0.050000   0.130000
                    CHANNELS 3 Xrotation Yrotation Zrotation
                    End Site
                    {
                        OFFSET  -0.010000   0.002000   0.060000
                    }
                }
            }
        }
    }
    JOINT lHip
    {
        OFFSET   0.100000  -0.051395   0.000000
        CHANNELS 3 Xrotation Yrotation Zrotation
        JOINT lKnee
        {
            OFFSET   0.000000  -0.410000   0.000000
            CHANNELS 3 Xrotation Yrotation Zrotation
            JOINT lAnkle
            {
                OFFSET   0.000000  -0.390000   0.000000
                CHANNELS 3 Xrotation Yrotation Zrotation
                JOINT lToeJoint
                {
                    OFFSET   0.000000  -0.050000   0.130000
                    CHANNELS 3 Xrotation Yrotation Zrotation
                    End Site
                    {
                        OFFSET   0.010000   0.002000   0.060000
                    }
                }
            }
        }
    }
}
MOTION
Frames: 15
Frame Time:   0.008333
 -2.406611   0.332774   4.327280  -7.837507  12.384531  -0.663351  20.564069   3.486942  -2.822165  -4.293652   4.273351  -0.619820  -0.299036   0.395518   1.048297   1.048639   0.155937   8.771474   2.771694  -0.547062  41.355859  -0.001533  37.850762   0.001599   8.927827   3.193356   6.243224   0.739337  12.653816  -8.940890  -9.175681  12.884595 -21.892121  -0.073734 -81.751932  -0.063304   7.294881  -2.858927   0.918437 -63.379352  -6.061494  -3.951579 151.843201   0.000191   0.000149 -70.066512  -0.242270  -2.847099 -16.860810  -0.000597   0.003662 -54.632946  -2.850648  13.453766 157.535435  -0.000086   0.000741 -67.097779  -1.745932  -3.839094 -30.660687   0.001370   0.005587
 -2.406824   0.332079   4.325955  -7.741839  12.635322  -0.802101  20.562688   3.349544  -2.756481  -4.419668   4.234860  -0.561569  -0.454895   0.405957   1.158991   0.859682   0.261774   8.899028   2.768222  -0.335352  41.311825  -0.001473  37.542777   0.001652   9.006595   3.198357   6.309390   0.697990  12.531110  -8.972218  -8.610074  12.879119 -22.083560  -0.088162 -80.572662  -0.078334   7.335786  -2.936867   0.932472 -63.706114  -5.998374  -3.946607 151.842703   0.000152   0.000120 -70.054346  -0.115149  -2.594400 -16.492288  -0.000841   0.004005 -54.661125  -2.913506  13.420023 157.302650  -0.000383   0.000811 -67.853986  -1.699916  -4.055515 -31.311974  -0.000401   0.003048
 -2.406905   0.331234   4.324586  -7.652474  12.830050  -0.948486  20.555890   3.208689  -2.668861  -4.553674   4.196419  -0.495849  -0.610763   0.413142   1.272547   0.667246   0.376409   9.013029   2.752196  -0.124931  41.263147  -0.001325  37.261034   0.001464   9.081616   3.228891   6.359452   0.677077  12.408894  -9.019205  -8.061324  12.880923 -22.273819  -0.094748 -79.435251  -0.085636   7.375307  -2.825362   0.824153 -64.050646  -5.935132  -3.939506 151.862346   0.000164   0.000071 -70.044148  -0.001781  -2.354838 -16.114792  -0.000975   0.004110 -54.662045  -2.959875  13.394977 157.073776  -0.000528   0.000871 -68.594199  -1.657442  -4.264854 -32.261032  -0.002502   0.000712
 -2.406881   0.330252   4.323194  -7.581341  12.979023  -1.097257  20.550215   3.074117  -2.570926  -4.684586   4.159057  -0.424104  -0.758428   0.418625   1.383149   0.480193   0.490210   9.119284   2.731314   0.077219  41.216202  -0.001155  37.001265   0.001174   9.151098   3.277152   6.395475   0.660596  12.290417  -9.073260  -7.544019  12.880647 -22.458843  -0.094972 -78.368795  -0.086618   7.412974  -2.666401   0.673870 -64.395633  -5.875471  -3.934748 151.901213   0.000201   0.000007 -70.035616   0.100617  -2.128311 -15.736834  -0.001025   0.004020 -54.647099  -2.998476  13.373816 156.867695  -0.000552   0.000901 -69.305844  -1.613837  -4.462976 -33.328612  -0.004384  -0.001075
 -2.406769   0.329154   4.321786  -7.532010  13.086880  -1.244631  20.547772   2.947191  -2.469508  -4.808694   4.122958  -0.348916  -0.896833   0.423173   1.488749   0.302071   0.600122   9.221693   2.709196   0.269104  41.173652  -0.000985  36.760385   0.000845   9.216293   3.334209   6.425786   0.644956  12.176083  -9.128676  -7.060044  12.876794 -22.635501  -0.091426 -77.373295  -0.083845   7.449435  -2.507251   0.514124 -64.734207  -5.818854  -3.932881 151.956760   0.000238  -0.000067 -70.028493   0.193465  -1.914292 -15.360261  -0.001018   0.003788 -54.622589  -3.033231  13.354612 156.690928  -0.000498   0.000896 -69.983101  -1.569400  -4.648920 -34.426964  -0.005876  -0.002269
 -2.406633   0.327919   4.320310  -7.491939  13.164157  -1.403263  20.545953   2.826546  -2.361850  -4.928621   4.086661  -0.267676  -1.027312   0.426965   1.589071   0.133239   0.705633   9.319104   2.686727   0.450852  41.135684  -0.000821  36.537098   0.000522   9.277434   3.397918   6.454958   0.628076  12.064665  -9.178856  -6.609702  12.868207 -22.800955  -0.085914 -76.445983  -0.079149   7.484702  -2.362286   0.358695 -65.043983  -5.707972  -3.911126 151.910609   0.000121   0.000029 -70.022916   0.313850  -1.746140 -15.984673  -0.000988   0.001838 -54.618327  -3.078453  13.344592 156.544814  -0.000415   0.000861 -70.630429  -1.517830  -4.822189 -35.553219  -0.007002  -0.003110
 -2.406354   0.326616   4.318953  -7.548135  13.175566  -1.529497  20.585709   2.721770  -2.266294  -5.014022   4.059598  -0.191900  -1.144567   0.430816   1.682801  -0.026358   0.808778   9.416511   2.664567   0.622957  41.102787  -0.000655  36.328560   0.000178   9.336378   3.459284   6.486451   0.612545  11.960555  -9.229606  -6.188931  12.859432 -22.957039  -0.079466 -75.580113  -0.073432   7.519196  -2.224519   0.207352 -65.302384  -5.650628  -3.901717 152.024071   0.000167  -0.000126 -70.017823   0.388255  -1.548704 -15.431735  -0.001025   0.001825 -54.687767  -3.093555  13.345423 156.471826  -0.000328   0.000781 -70.524720  -1.451200  -5.029976 -38.526375  -0.012426  -0.008251
 -2.406087   0.325190   4.317672  -7.576071  13.095543  -1.623757  20.544892   2.583953  -2.224058  -5.068716   4.055143  -0.116726  -1.297327   0.468686   1.780143  -0.198984   0.939532   9.514466   2.666333   0.785815  41.059599  -0.000467  36.191782  -0.000093   9.388153   3.495993   6.559971   0.609472  11.783057  -9.176960  -5.601372  12.814533 -23.176367  -0.086445 -74.330908  -0.081781   7.535977  -2.256626   0.206147 -65.643334  -5.517554  -3.838160 152.146630   0.000201  -0.000265 -70.013204   0.428938  -1.293089 -14.846304  -0.001292   0.001559 -54.973551  -3.172424  13.344447 156.793784  -0.000501   0.000426 -70.439202  -1.370481  -5.158325 -37.976471  -0.009324  -0.006055
 -2.405846   0.323775   4.316365  -7.607654  12.989886  -1.700552  20.512676   2.430212  -2.195310  -5.127183   4.036058  -0.052861  -1.448552   0.503646   1.875400  -0.369158   1.070713   9.609917   2.660922   0.945395  41.018393  -0.000286  36.068296  -0.000343   9.434806   3.555577   6.626337   0.614269  11.598318  -9.135376  -5.042131  12.770015 -23.385283  -0.089569 -73.131834  -0.086100   7.553193  -2.112864   0.114411 -65.981790  -5.379158  -3.766993 152.269062   0.000209  -0.000363 -70.009673   0.476102  -1.073165 -14.296652  -0.001388   0.001346 -55.243072  -3.250868  13.329658 157.092580  -0.000717   0.000204 -70.371862  -1.291705  -5.292970 -37.477597  -0.006873  -0.004551
 -2.405618   0.322374   4.315043  -7.646580  12.857305  -1.767550  20.485715   2.275331  -2.171228  -5.182288   4.008786   0.000579  -1.590749   0.535398   1.964991  -0.530848   1.195268   9.698685   2.653569   1.096452  40.978908  -0.000120  35.954514  -0.000560   9.477928   3.623930   6.684083   0.618852  11.417051  -9.105171  -4.517833  12.722512 -23.586471  -0.089025 -72.009541  -0.086513   7.570069  -1.933198  -0.010762 -66.306906  -5.247331  -3.689255 152.392010   0.000188  -0.000428 -70.006914   0.522154  -0.875305 -13.770089  -0.001424   0.001090 -55.491936  -3.328327  13.312302 157.372572  -0.000940   0.000070 -70.318652  -1.218034  -5.419332 -37.042778  -0.005006  -0.003568
 -2.405396   0.320989   4.313720  -7.696945  12.701321  -1.825287  20.464261   2.121694  -2.150997  -5.231848   3.975405   0.045680  -1.723301   0.564543   2.048856  -0.681831   1.310828   9.780492   2.646631   1.237130  40.940911   0.000027  35.848514  -0.000745   9.518801   3.692287   6.735504   0.622014  11.241648  -9.082905  -4.028050  12.672447 -23.778687  -0.085989 -70.962785  -0.084257   7.586677  -1.759879  -0.146879 -66.625761  -5.124200  -3.612944 152.510934   0.000140  -0.000464 -70.004750   0.562132  -0.691584 -13.232342  -0.001457   0.000747 -55.714906  -3.404243  13.294255 157.636710  -0.001152  -0.000002 -70.276674  -1.149376  -5.537228 -36.667769  -0.003601  -0.002926
 -2.405285   0.319635   4.312411  -7.759133  12.552023  -1.886114  20.449894   1.962287  -2.133396  -5.275425   3.930289   0.090854  -1.847181   0.591040   2.128442  -0.820483   1.415882   9.860204   2.641970   1.366736  40.907658   0.000152  35.749019  -0.000890   9.557805   3.756432   6.784632   0.621177  11.068958  -9.060753  -3.573643  12.617887 -23.957762  -0.081421 -69.987617  -0.080319   7.603058  -1.603155  -0.281349 -66.931995  -5.030778  -3.531860 152.621432   0.000099  -0.000463 -70.003080   0.606472  -0.514479 -12.661818  -0.001590   0.000501 -55.923476  -3.466597  13.288970 157.887937  -0.001255  -0.000085 -70.242642  -1.056571  -5.622851 -36.534397  -0.002775  -0.002343
 -2.405242   0.318309   4.311113  -7.833039  12.399448  -1.937661  20.440488   1.802599  -2.122826  -5.312480   3.877794   0.128676  -1.962370   0.615465   2.202037  -0.946863   1.510447   9.935561   2.640023   1.485224  40.877290   0.000259  35.655105  -0.001001   9.595634   3.813491   6.833150   0.617571  10.901358  -9.040113  -3.151606  12.560815 -24.125111  -0.075976 -69.079368  -0.075366   7.619198  -1.464604  -0.412061 -67.227636  -4.951515  -3.452429 152.727451   0.000056  -0.000443 -70.001828   0.648201  -0.346363 -12.071318  -0.001760   0.000256 -56.112393  -3.528505  13.288435 158.123879  -0.001315  -0.000123 -70.215667  -0.962149  -5.702523 -36.405214  -0.002135  -0.001884
 -2.405279   0.316771   4.309385  -7.666097  12.417528  -2.125699  20.186772   1.608454  -1.967840  -5.265811   3.769848   0.211809  -2.108090   0.690459   2.217198  -1.064771   1.579341   9.919567   2.624921   1.660505  40.803094   0.000326  35.576561  -0.000968   9.630966   3.829763   6.867440   0.568502  10.712386  -8.994810  -2.633288  12.343899 -24.367022  -0.076411 -67.959382  -0.076922   7.617686  -1.457783  -0.453993 -67.819129  -5.004701  -3.447222 152.812915   0.000072  -0.000399 -70.001048   0.683660  -0.227478 -11.540519  -0.001660   0.000399 -56.751022  -3.817654  13.150693 158.389272  -0.001452  -0.000163 -70.194391  -0.860449  -5.780207 -36.007382  -0.001407  -0.001659
 -2.405387   0.315191   4.307462  -7.527252  12.469722  -2.315000  20.012384   1.419278  -1.813516  -5.199783   3.653964   0.303339  -2.244398   0.763139   2.239235  -1.192371   1.660450   9.884402   2.596907   1.834449  40.715005   0.000360  35.507867  -0.000877   9.664958   3.854524   6.865048   0.513114  10.498549  -8.956464  -2.153083  12.117747 -24.596134  -0.075216 -66.904439  -0.076909   7.617298  -1.399212  -0.542743 -68.400492  -5.052732  -3.427985 152.889472   0.000117  -0.000359 -70.000527   0.718592  -0.116431 -10.967283  -0.001515   0.000795 -57.438696  -4.094456  13.007936 158.648529  -0.001449  -0.000276 -70.177973  -0.729166  -5.870444 -35.506610  -0.000656  -0.001184
